<svg width="121" height="38" viewBox="0 0 121 38" fill="none" xmlns="http://www.w3.org/2000/svg">
<path d="M118.916 9.78842C117.875 7.95664 116.462 6.56449 114.604 5.53869C112.819 4.5129 110.737 4 108.507 4C106.202 4 104.195 4.5129 102.336 5.53869C100.477 6.56449 99.0649 7.95664 98.024 9.78842C97.4292 10.8142 96.9832 11.9133 96.7601 13.0856C96.5371 11.9133 96.091 10.8142 95.4962 9.78842C94.4553 7.95664 93.0427 6.56449 91.1841 5.53869C89.3997 4.5129 87.318 4 85.0875 4C82.7828 4 80.7754 4.5129 78.9167 5.53869C77.058 6.56449 75.6454 7.95664 74.6046 9.78842C74.0098 10.8142 73.5637 11.9133 73.3406 13.0856C73.1176 11.9866 72.7459 10.8875 72.1511 9.78842C71.1102 7.95664 69.6976 6.56449 67.8389 5.53869C66.0546 4.5129 63.9729 4 61.7424 4C59.4377 4 57.4303 4.5129 55.5716 5.53869C53.7129 6.56449 52.3003 7.95664 51.2594 9.78842C50.6646 10.8142 50.2186 11.9133 49.9955 13.0856C49.7725 11.9866 49.3264 10.8875 48.7316 9.78842C47.6908 7.95664 46.2782 6.56449 44.4195 5.53869C42.6351 4.5129 40.5534 4 38.323 4C36.0182 4 34.0108 4.5129 32.1521 5.53869C30.2934 6.56449 28.8808 7.95664 27.84 9.78842C27.3195 10.7409 26.9478 11.6935 26.6504 12.7193C26.6504 12.7193 26.6504 12.7193 26.6504 12.646C25.6839 15.5768 23.8252 18.581 22.6356 20.3395C22.3383 20.8524 22.0409 21.292 21.6691 21.7316C21.5948 21.8049 21.5204 21.8782 21.5204 21.8782C20.9256 22.5376 20.2565 23.0505 19.513 23.4901C18.1748 24.2228 16.6878 24.6625 15.0522 24.6625C13.4165 24.6625 11.9296 24.2961 10.5913 23.4901C9.25309 22.7574 8.21222 21.6583 7.46875 20.3395C6.72527 19.0206 6.35354 17.4819 6.35354 15.7967C6.35354 14.3312 6.65093 13.0856 7.17136 11.9133C7.69179 10.8142 8.36092 9.86169 9.25309 9.05571C9.47613 8.90917 9.62483 8.68935 9.69917 8.39627C9.84787 8.10318 9.84787 7.8101 9.84787 7.59029C9.84787 7.22393 9.69917 6.93085 9.47613 6.63776C9.10439 6.27141 8.73266 6.05159 8.28657 6.05159C7.91483 6.05159 7.5431 6.27141 7.24571 6.49122C6.35353 7.2972 5.53571 8.24973 4.94093 9.27552C4.79224 9.56861 4.71789 9.64188 4.64354 9.78842C3.60268 11.6202 3.08224 13.5985 3.08224 15.8699C3.08224 18.1413 3.60268 20.1197 4.64354 21.9514C5.68441 23.7832 7.09701 25.1754 8.9557 26.2012C10.8144 27.227 12.8218 27.7399 15.1265 27.7399C17.4313 27.7399 19.4387 27.227 21.2974 26.2012C23.1561 25.1754 24.5687 23.7832 25.6095 21.9514C26.13 20.9989 26.5017 20.0464 26.7991 19.0206C27.0221 20.0464 27.4682 21.0722 27.9887 21.9514C29.0295 23.7832 30.4421 25.1754 32.3008 26.2012C34.1595 27.227 36.1669 27.7399 38.4717 27.7399C40.7764 27.7399 42.7838 27.227 44.6425 26.2012C46.5012 25.1754 47.9138 23.7832 48.9547 21.9514C49.5494 20.9256 49.9955 19.8266 50.2186 18.6542C50.4416 19.8266 50.8877 20.9256 51.4825 21.9514C52.5233 23.7832 53.9359 25.1754 55.7946 26.2012C57.6533 27.227 59.6607 27.7399 61.9655 27.7399C64.2702 27.7399 66.2776 27.227 68.1363 26.2012C69.995 25.1754 71.4076 23.7832 72.4485 21.9514C73.0433 20.9256 73.4893 19.8266 73.7124 18.6542C73.9354 19.8266 74.3815 20.9256 74.9763 21.9514C76.0172 23.7832 77.4298 25.1754 79.2884 26.2012C81.1471 27.227 83.1545 27.7399 85.4593 27.7399C87.7641 27.7399 89.7714 27.227 91.6301 26.2012C93.4888 25.1754 94.9014 23.7832 95.9423 21.9514C96.5371 20.9256 96.9831 19.8266 97.2062 18.6542C97.4292 19.8266 97.8753 20.9256 98.4701 21.9514C99.511 23.7832 100.924 25.1754 102.782 26.2012C104.641 27.227 106.648 27.7399 108.953 27.7399C111.258 27.7399 113.265 27.227 115.124 26.2012C116.983 25.1754 118.395 23.7832 119.436 21.9514C120.477 20.1197 120.997 18.1413 120.997 15.8699C120.477 13.6718 119.957 11.6202 118.916 9.78842ZM45.9064 20.4127C45.1629 21.7316 44.1221 22.8307 42.7838 23.5634C41.4456 24.2961 39.9586 24.7357 38.323 24.7357C36.6873 24.7357 35.2004 24.3694 33.8621 23.5634C32.5239 22.8307 31.483 21.7316 30.7395 20.4127C29.996 19.0939 29.6243 17.5552 29.6243 15.8699C29.6243 14.1847 29.996 12.646 30.7395 11.3271C31.483 10.0082 32.5239 8.90917 33.8621 8.17646C35.2004 7.44374 36.6873 7.00412 38.323 7.00412C39.9586 7.00412 41.5199 7.37047 42.7838 8.17646C44.1221 8.90917 45.1629 10.0082 45.9064 11.3271C46.6499 12.646 47.0216 14.1847 47.0216 15.8699C47.0216 17.5552 46.6499 19.0939 45.9064 20.4127ZM69.3259 20.4127C68.5824 21.7316 67.5415 22.8307 66.2033 23.5634C64.865 24.2961 63.3781 24.7357 61.7424 24.7357C60.1068 24.7357 58.6198 24.3694 57.2816 23.5634C55.9433 22.8307 54.9025 21.7316 54.159 20.4127C53.4155 19.0939 53.0438 17.5552 53.0438 15.8699C53.0438 14.1847 53.4155 12.646 54.159 11.3271C54.9025 10.0082 55.9433 8.90917 57.2816 8.17646C58.6198 7.44374 60.1068 7.00412 61.7424 7.00412C63.3781 7.00412 64.9394 7.37047 66.2033 8.17646C67.5415 8.90917 68.5824 10.0082 69.3259 11.3271C70.0694 12.646 70.4411 14.1847 70.4411 15.8699C70.4411 17.5552 70.0694 19.0939 69.3259 20.4127ZM92.671 20.4127C91.9275 21.7316 90.8867 22.8307 89.5484 23.5634C88.2101 24.2961 86.7232 24.7357 85.0875 24.7357C83.4519 24.7357 81.965 24.3694 80.6267 23.5634C79.2884 22.8307 78.2476 21.7316 77.5041 20.4127C76.7606 19.0939 76.3889 17.5552 76.3889 15.8699C76.3889 14.1847 76.7606 12.646 77.5041 11.3271C78.2476 10.0082 79.2884 8.90917 80.6267 8.17646C81.965 7.44374 83.4519 7.00412 85.0875 7.00412C86.7232 7.00412 88.2845 7.37047 89.5484 8.17646C90.8867 8.90917 91.9275 10.0082 92.671 11.3271C93.4145 12.646 93.7862 14.1847 93.7862 15.8699C93.7862 17.5552 93.4145 19.0939 92.671 20.4127ZM116.09 20.4127C115.347 21.7316 114.306 22.8307 112.968 23.5634C111.63 24.2961 110.143 24.7357 108.507 24.7357C106.871 24.7357 105.384 24.3694 104.046 23.5634C102.708 22.8307 101.667 21.7316 100.924 20.4127C100.18 19.0939 99.8084 17.5552 99.8084 15.8699C99.8084 14.1847 100.18 12.646 100.924 11.3271C101.667 10.0082 102.708 8.90917 104.046 8.17646C105.384 7.44374 106.871 7.00412 108.507 7.00412C110.143 7.00412 111.704 7.37047 112.968 8.17646C114.306 8.90917 115.347 10.0082 116.09 11.3271C116.834 12.646 117.206 14.1847 117.206 15.8699C117.206 17.5552 116.834 19.0939 116.09 20.4127Z" fill="#544CBA"/>
<path d="M71.7793 30.8717C71.482 30.6519 71.1846 30.5787 70.8128 30.5787C70.5898 30.5787 70.2924 30.6519 70.0694 30.7985C69.8463 30.945 69.6233 31.0916 69.4746 31.3114C68.5824 32.4104 67.5415 33.2164 66.2033 33.8026C64.865 34.3888 63.3781 34.6818 61.7424 34.6818C60.1068 34.6818 58.6198 34.3888 57.2816 33.8026C55.9433 33.2164 54.9025 32.3372 54.0103 31.3114C53.8616 31.0916 53.6385 30.945 53.4155 30.7985C53.1925 30.6519 52.8951 30.5787 52.672 30.5787C52.3003 30.5787 52.0029 30.6519 51.7055 30.8717C51.3338 31.1648 51.1107 31.5312 51.1107 31.9708C51.1107 32.3372 51.2594 32.6303 51.4825 32.9233C52.672 34.3888 54.0846 35.5611 55.869 36.3671C57.579 37.1731 59.5863 37.6127 61.7424 37.6127C63.9729 37.6127 65.9059 37.1731 67.6159 36.3671C69.3259 35.5611 70.8128 34.3888 72.0024 32.9233C72.2254 32.6303 72.3741 32.3372 72.3741 31.9708C72.3741 31.5312 72.1511 31.1648 71.7793 30.8717Z" fill="#544CBA"/>
<path d="M7.39429 3.10114C8.80689 3.32095 10.2195 3.90712 11.5578 4.78638C12.896 5.66563 14.0112 6.7647 14.7547 7.93703C15.4982 9.18264 15.9443 10.4283 16.0929 11.8204C16.0929 12.0402 16.1673 12.3333 16.316 12.5531C16.4647 12.7729 16.6134 12.9927 16.8364 13.1393C17.1338 13.3591 17.4312 13.4324 17.8029 13.4324C18.3234 13.3591 18.6951 13.2126 18.9182 12.8462C19.1412 12.5531 19.2155 12.1868 19.1412 11.8204C18.9925 9.91536 18.3977 8.23012 17.4312 6.54488C16.4647 4.93292 15.0521 3.46749 13.1934 2.29516C11.3347 1.12282 9.47602 0.390106 7.61733 0.0970218C5.75864 -0.122792 3.89996 0.0237506 2.11562 0.60992C1.74388 0.756462 1.44649 0.903004 1.22345 1.19609C1.0004 1.56244 0.926056 2.00207 1.07475 2.51497C1.22345 2.80805 1.44649 3.10114 1.66953 3.24768C1.89257 3.39422 2.11562 3.46749 2.41301 3.54077C2.7104 3.54077 2.93344 3.54077 3.15648 3.46749C4.56908 3.02787 5.98169 2.88133 7.39429 3.10114Z" fill="#544CBA"/>
</svg>
